# xmcd CD database file
#
# Track frame offsets:
#	150
#	10099
#	23602
#	33183
#	45133
#	55801
#	65605
#	76328
#	86236
#	97790
#	106360
#	125308
#	133235
#	141496
#	155362
#	164044
#	177745
#	188127
#	197011
#
# Disc length: 2771 seconds
#
# Revision: 0
# Processed by: cddbd v1.5.2PL0 Copyright (c) Steve Scherf et al.
# Submitted via: ACXtractor (MTCDDB.DLL V2003.07.15)
#
DISCID=fb0ad113
DTITLE=Glen Campbell - I'll Paint You a Song
DYEAR=1987
DGENRE=Country
TTITLE0=Same Old Places
TTITLE1=There's More Pretty Girls Than
TTITLE2=Truck Drivin' Man
TTITLE3=True Grit
TTITLE4=Weary Lonesome Blues
TTITLE5=Woman's World
TTITLE6=Can't You See I'm Trying
TTITLE7=Down Home
TTITLE8=Everything a Man Could Ever Need
TTITLE9=Heartaches Can Be Fun
TTITLE10=I'll Paint You a Song
TTITLE11=Kentucky Means Paradise
TTITLE12=Lonesome Jailhouse Blues
TTITLE13=Long Black Limousine
TTITLE14=Ol'Norwood Comin' Home
TTITLE15=One Hundred Miles Away From Home
TTITLE16=Poor Boy Looking for a Home
TTITLE17=Private John Q
TTITLE18=Rainin on  the Mountain
EXTD=ID3G:   2 YEAR: 1987
EXTT0=
EXTT1=
EXTT2=
EXTT3=
EXTT4=
EXTT5=
EXTT6=
EXTT7=
EXTT8=
EXTT9=
EXTT10=
EXTT11=
EXTT12=
EXTT13=
EXTT14=
EXTT15=
EXTT16=
EXTT17=
EXTT18=
PLAYORDER=
